<svg width="488" height="488" viewBox="0 0 488 488" fill="none" xmlns="http://www.w3.org/2000/svg">
<path d="M0 40C0 17.9086 17.9086 0 40 0H431C462.48 0 488 25.5198 488 57V431C488 462.48 462.48 488 431 488H57C25.5198 488 0 462.48 0 431V40Z" fill="#D4FF4C"/>
<rect x="76" y="189" width="336" height="130" fill="#2D2D2D"/>
<path d="M308.799 254.247C308.799 260.952 307.778 266.103 305.738 269.699C303.89 273.1 301.364 274.801 298.157 274.801C295.922 274.801 293.93 274.363 292.181 273.488V240.835C294.999 237.92 297.769 236.462 300.49 236.462C306.029 236.462 308.799 242.391 308.799 254.247ZM372.647 248.999H356.612C357.194 239.475 359.915 234.713 364.776 234.713C369.732 234.713 372.356 239.475 372.647 248.999ZM145.388 268.678C145.388 262.945 143.784 258.499 140.577 255.34C137.37 252.182 132.463 249.388 125.854 246.958C122.356 245.695 119.829 244.529 118.274 243.46C116.72 242.391 115.943 241.176 115.943 239.815C115.943 237.289 117.789 236.025 121.482 236.025C127.119 236.025 133.144 237.629 139.558 240.836L142.18 224.509C135.669 221.4 128.429 219.845 120.46 219.845C112.977 219.845 107.001 221.691 102.53 225.384C97.8656 229.174 95.5333 234.47 95.5333 241.273C95.5333 246.91 97.1125 251.307 100.271 254.466C103.429 257.624 108.264 260.369 114.775 262.702C118.565 264.062 121.213 265.301 122.72 266.419C124.226 267.537 124.978 268.873 124.978 270.428C124.978 273.44 122.646 274.947 117.981 274.947C115.163 274.947 111.762 274.339 107.777 273.125C103.793 271.91 100.294 270.428 97.2817 268.678L94.6578 285.151C101.655 289.135 109.818 291.128 119.148 291.128C127.019 291.128 133.287 289.33 137.952 285.734C142.909 281.749 145.388 276.064 145.388 268.678ZM188.391 237.337L191.161 221.157H177.167V201.477L158.363 204.539L155.74 221.157L149.035 222.324L146.558 237.338H155.596V269.263C155.596 277.426 157.734 283.257 162.01 286.755C165.703 289.671 171.096 291.129 178.19 291.129C181.3 291.129 185.139 290.594 189.707 289.525V272.324C186.597 273.005 184.459 273.345 183.292 273.345C179.211 273.345 177.17 270.916 177.17 266.057V237.34L188.391 237.337ZM234.455 240.982V220.719C232.998 220.428 231.637 220.283 230.373 220.283C227.263 220.283 224.567 221.06 222.283 222.614C219.999 224.168 218.371 226.403 217.399 229.319L215.942 221.157H196.846V289.815H218.711V245.209C221.238 242.196 225.223 240.69 230.665 240.69C232.219 240.69 233.482 240.788 234.455 240.982ZM239.848 289.815H261.714V221.157H239.848V289.815ZM330.519 253.518C330.519 241.662 328.332 232.964 323.959 227.425C320.072 222.371 314.678 219.845 307.778 219.845C301.559 219.845 295.874 222.566 290.723 228.008L289.556 221.157H270.314V315.18L292.18 311.536V289.524C295.679 290.593 298.983 291.128 302.092 291.128C310.159 291.128 316.67 288.406 321.626 282.964C327.554 276.647 330.519 266.832 330.519 253.518ZM262.297 202.789C262.297 199.582 261.18 196.861 258.945 194.626C256.71 192.391 253.988 191.273 250.781 191.273C247.574 191.273 244.853 192.391 242.618 194.626C240.383 196.861 239.265 199.582 239.265 202.789C239.265 205.996 240.383 208.742 242.618 211.025C244.853 213.309 247.574 214.451 250.781 214.451C253.988 214.451 256.71 213.309 258.945 211.025C261.18 208.742 262.297 205.996 262.297 202.789ZM393.201 254.83C393.201 243.849 390.869 235.297 386.204 229.174C381.345 222.954 374.348 219.845 365.213 219.845C355.883 219.845 348.522 223.052 343.128 229.466C337.735 235.88 335.038 244.626 335.038 255.705C335.038 268.144 338.099 277.279 344.221 283.11C349.567 288.455 357.39 291.128 367.691 291.128C377.506 291.128 385.281 289.184 391.015 285.296L388.683 270.282C383.144 273.294 376.924 274.801 370.025 274.801C365.846 274.801 362.784 273.877 360.841 272.03C358.606 270.183 357.245 266.976 356.759 262.409H392.911C393.105 261.049 393.201 258.523 393.201 254.83ZM411.86 141.659V346.521C411.86 351.575 410.014 355.948 406.321 359.64C402.628 363.333 398.255 365.18 393.201 365.18H94.6589C89.6054 365.18 85.2323 363.333 81.5394 359.64C77.8465 355.948 76 351.575 76 346.521V141.659C76 136.605 77.8465 132.232 81.5394 128.54C85.2323 124.847 89.6054 123 94.6589 123H393.201C398.255 123 402.628 124.847 406.321 128.54C410.014 132.232 411.86 136.605 411.86 141.659Z" fill="url(#paint0_linear_563_23)"/>
<rect x="76" y="151.07" width="336" height="24.9796" fill="black" fill-opacity="0.45"/>
<defs>
<linearGradient id="paint0_linear_563_23" x1="382.493" y1="407.915" x2="562.58" y2="111.656" gradientUnits="userSpaceOnUse">
<stop stop-color="#A263E9"/>
<stop offset="1" stop-color="#F070B2"/>
</linearGradient>
</defs>
</svg>
